<?xml version="1.0" encoding="UTF-8" standalone="no"?>
<svg
   xmlns:dc="http://purl.org/dc/elements/1.1/"
   xmlns:cc="http://creativecommons.org/ns#"
   xmlns:rdf="http://www.w3.org/1999/02/22-rdf-syntax-ns#"
   xmlns:svg="http://www.w3.org/2000/svg"
   xmlns="http://www.w3.org/2000/svg"
   xmlns:sodipodi="http://sodipodi.sourceforge.net/DTD/sodipodi-0.dtd"
   xmlns:inkscape="http://www.inkscape.org/namespaces/inkscape"
   inkscape:export-ydpi="72"
   inkscape:export-xdpi="72"
   inkscape:export-filename="/Users/khaled/bitmap.png"
   inkscape:version="1.0beta1 (32d4812, 2019-09-19)"
   sodipodi:docname="rana.svg"
   id="svg979"
   height="2720.5715"
   width="28240"
   version="1.1">
  <metadata
     id="metadata985">
    <rdf:RDF>
      <cc:Work
         rdf:about="">
        <dc:format>image/svg+xml</dc:format>
        <dc:type
           rdf:resource="http://purl.org/dc/dcmitype/StillImage" />
        <dc:title></dc:title>
      </cc:Work>
    </rdf:RDF>
  </metadata>
  <defs
     id="defs983" />
  <sodipodi:namedview
     fit-margin-bottom="10"
     fit-margin-left="10"
     fit-margin-right="10"
     fit-margin-top="10"
     inkscape:current-layer="svg979"
     inkscape:window-maximized="0"
     inkscape:window-y="23"
     inkscape:window-x="0"
     inkscape:cy="1407.0468"
     inkscape:cx="26338.943"
     inkscape:zoom="0.025448478"
     showgrid="false"
     id="namedview981"
     inkscape:window-height="771"
     inkscape:window-width="2048"
     inkscape:pageshadow="2"
     inkscape:pageopacity="0"
     guidetolerance="10"
     gridtolerance="10"
     objecttolerance="10"
     borderopacity="1"
     inkscape:document-rotation="0"
     bordercolor="#666666"
     pagecolor="#ffffff" />
  <path
     inkscape:connector-curvature="0"
     id="path841"
     d="m 2650,2710.5714 v 0 q -42,0 -71,-29 -29,-29 -29,-71 v 0 q 0,-42 29,-71 29,-29 71,-29 v 0 q 42,0 71,29 29,29 29,71 v 0 q 0,42 -29,71 -29,29 -71,29 z"
     fill="#d22e1f" />
  <path
     inkscape:connector-curvature="0"
     id="path845"
     d="m 4200,2710.5714 v 0 q -42,0 -71,-29 -29,-29 -29,-71 v 0 q 0,-42 29,-71 29,-29 71,-29 v 0 q 42,0 71,29 29,29 29,71 v 0 q 0,42 -29,71 -29,29 -71,29 z m 300,0 v 0 q -42,0 -71,-29 -29,-29 -29,-71 v 0 q 0,-42 29,-71 29,-29 71,-29 v 0 q 42,0 71,29 29,29 29,71 v 0 q 0,42 -29,71 -29,29 -71,29 z"
     fill="#d22e1f" />
  <path
     inkscape:connector-curvature="0"
     id="path865"
     d="m 10230,2710.5714 v 0 q -42,0 -71,-29 -29,-29 -29,-71 v 0 q 0,-42 29,-71 29,-29 71,-29 v 0 q 42,0 71,29 29,29 29,71 v 0 q 0,42 -29,71 -29,29 -71,29 z"
     fill="#d22e1f" />
  <path
     inkscape:connector-curvature="0"
     id="path873"
     d="m 12470,2710.5714 v 0 q -42,0 -71,-29 -29,-29 -29,-71 v 0 q 0,-42 29,-71 29,-29 71,-29 v 0 q 42,0 71,29 29,29 29,71 v 0 q 0,42 -29,71 -29,29 -71,29 z"
     fill="#d22e1f" />
  <path
     inkscape:connector-curvature="0"
     id="path877"
     d="m 12770,1130.5714 v 0 q -42,0 -71,-29 -29,-29 -29,-71 v 0 q 0,-41.99997 29,-70.99997 29,-29 71,-29 v 0 q 42,0 71,29 29,29 29,70.99997 v 0 q 0,42 -29,71 -29,29 -71,29 z"
     fill="#d22e1f" />
  <path
     inkscape:connector-curvature="0"
     id="path887"
     d="m 13420,2710.5714 v 0 q -42,0 -71,-29 -29,-29 -29,-71 v 0 q 0,-42 29,-71 29,-29 71,-29 v 0 q 42,0 71,29 29,29 29,71 v 0 q 0,42 -29,71 -29,29 -71,29 z"
     fill="#d22e1f" />
  <path
     inkscape:connector-curvature="0"
     id="path895"
     d="m 15036,2710.5714 v 0 q -42,0 -71,-29 -29,-29 -29,-71 v 0 q 0,-42 29,-71 29,-29 71,-29 v 0 q 42,0 71,29 29,29 29,71 v 0 q 0,42 -29,71 -29,29 -71,29 z m 300,0 v 0 q -42,0 -71,-29 -29,-29 -29,-71 v 0 q 0,-42 29,-71 29,-29 71,-29 v 0 q 42,0 71,29 29,29 29,71 v 0 q 0,42 -29,71 -29,29 -71,29 z"
     fill="#d22e1f" />
  <path
     inkscape:connector-curvature="0"
     id="path905"
     d="m 16162,2710.5714 v 0 q -42,0 -71,-29 -29,-29 -29,-71 v 0 q 0,-42 29,-71 29,-29 71,-29 v 0 q 42,0 71,29 29,29 29,71 v 0 q 0,42 -29,71 -29,29 -71,29 z m 300,0 v 0 q -42,0 -71,-29 -29,-29 -29,-71 v 0 q 0,-42 29,-71 29,-29 71,-29 v 0 q 42,0 71,29 29,29 29,71 v 0 q 0,42 -29,71 -29,29 -71,29 z"
     fill="#d22e1f" />
  <path
     inkscape:connector-curvature="0"
     id="path911"
     d="m 17012,1030.5714 v 0 q 0,42 -29,71 -29,29 -71,29 v 0 q -42,0 -71,-29 -29,-29 -29,-71 v 0 q 0,-41.99997 29,-70.99997 29,-29 71,-29 v 0 q 42,0 71,29 29,29 29,70.99997 z m -300,0 v 0 q 0,42 -29,71 -29,29 -71,29 v 0 q -42,0 -71,-29 -29,-29 -29,-71 v 0 q 0,-41.99997 29,-70.99997 29,-29 71,-29 v 0 q 42,0 71,29 29,29 29,70.99997 z"
     fill="#d22e1f" />
  <path
     inkscape:connector-curvature="0"
     id="path923"
     d="m 18262,1130.5714 v 0 q -42,0 -71,-29 -29,-29 -29,-71 v 0 q 0,-41.99997 29,-70.99997 29,-29 71,-29 v 0 q 42,0 71,29 29,29 29,70.99997 v 0 q 0,42 -29,71 -29,29 -71,29 z m 300,0 v 0 q -42,0 -71,-29 -29,-29 -29,-71 v 0 q 0,-41.99997 29,-70.99997 29,-29 71,-29 v 0 q 42,0 71,29 29,29 29,70.99997 v 0 q 0,42 -29,71 -29,29 -71,29 z"
     fill="#d22e1f" />
  <path
     inkscape:connector-curvature="0"
     id="path931"
     d="m 19912,1130.5714 v 0 q -42,0 -71,-29 -29,-29 -29,-71 v 0 q 0,-41.99997 29,-70.99997 29,-29 71,-29 v 0 q 42,0 71,29 29,29 29,70.99997 v 0 q 0,42 -29,71 -29,29 -71,29 z"
     fill="#d22e1f" />
  <path
     inkscape:connector-curvature="0"
     id="path935"
     d="m 20362,1130.5714 v 0 q -42,0 -71,-29 -29,-29 -29,-71 v 0 q 0,-41.99997 29,-70.99997 29,-29 71,-29 v 0 q 42,0 71,29 29,29 29,70.99997 v 0 q 0,42 -29,71 -29,29 -71,29 z"
     fill="#d22e1f" />
  <path
     inkscape:connector-curvature="0"
     id="path945"
     d="m 22250,1130.5714 v 0 q -42,0 -71,-29 -29,-29 -29,-71 v 0 q 0,-41.99997 29,-70.99997 29,-29 71,-29 v 0 q 42,0 71,29 29,29 29,70.99997 v 0 q 0,42 -29,71 -29,29 -71,29 z"
     fill="#d22e1f" />
  <path
     inkscape:connector-curvature="0"
     id="path949"
     d="m 22665,1130.5714 v 0 q -42,0 -71,-29 -29,-29 -29,-71 v 0 q 0,-41.99997 29,-70.99997 29,-29 71,-29 v 0 q 42,0 71,29 29,29 29,70.99997 v 0 q 0,42 -29,71 -29,29 -71,29 z m 300,0 v 0 q -42,0 -71,-29 -29,-29 -29,-71 v 0 q 0,-41.99997 29,-70.99997 29,-29 71,-29 v 0 q 42,0 71,29 29,29 29,70.99997 v 0 q 0,42 -29,71 -29,29 -71,29 z"
     fill="#d22e1f" />
  <path
     inkscape:connector-curvature="0"
     id="path953"
     d="m 23380,1130.5714 v 0 q -42,0 -71,-29 -29,-29 -29,-71 v 0 q 0,-41.99997 29,-70.99997 29,-29 71,-29 v 0 q 42,0 71,29 29,29 29,70.99997 v 0 q 0,42 -29,71 -29,29 -71,29 z m 300,0 v 0 q -42,0 -71,-29 -29,-29 -29,-71 v 0 q 0,-41.99997 29,-70.99997 29,-29 71,-29 v 0 q 42,0 71,29 29,29 29,70.99997 v 0 q 0,42 -29,71 -29,29 -71,29 z m -150,-265.99997 v 0 q -42,0 -71,-29 -29,-29 -29,-71 v 0 q 0,-42 29,-71 29,-29 71,-29 v 0 q 42,0 71,29 29,29 29,71 v 0 q 0,42 -29,71 -29,29 -71,29 z"
     fill="#d22e1f" />
  <path
     inkscape:connector-curvature="0"
     id="path965"
     d="m 26630,1130.5714 v 0 q -42,0 -71,-29 -29,-29 -29,-71 v 0 q 0,-41.99997 29,-70.99997 29,-29 71,-29 v 0 q 42,0 71,29 29,29 29,70.99997 v 0 q 0,42 -29,71 -29,29 -71,29 z"
     fill="#d22e1f" />
  <path
     inkscape:connector-curvature="0"
     style="fill:#0067ff;fill-opacity:1"
     d="m 26812,2710.5714 v 0 q -56,0 -104,-27 -48,-27 -78,-73 v 0 q 32,24 76,24 v 0 q 52,0 88,-36 36,-36 36,-88 v 0 -300 q 0,-50 -29,-74 -29,-24 -71,-26 v 0 q 98,0 182,-56 84,-56 118,-144 v 0 300 284 q 0,88 -64,152 -64,64 -154,64 z m -482,-300 v -200 h 200 v -300 q 0,-50 -29,-74 -29,-24 -71,-26 v 0 q 98,0 182,-56 84,-56 118,-144 v 0 300 500 z m 100,0 h -200 V 410.57143 q 0,-62 -36,-81 -36,-19 -64,-19 v 0 q 100,-46 178,-123 78,-77 122,-177.000001 v 0 400.000001 z"
     id="path969" />
  <path
     inkscape:connector-curvature="0"
     d="m 28230,2410.5714 h -200 V 410.57143 q 0,-62 -36,-81 -36,-19 -64,-19 v 0 q 100,-46 178,-123 78,-77 122,-177.000001 v 0 400.000001 z m -340,-200 h 180 v 200 h -180 z m -600,200 v -200 h 192 v 200 z m 390,150 v 0 q -104,0 -177,-73 -73,-73 -73,-177 v 0 q 0,-104 73,-177 73,-73 177,-73 v 0 q 104,0 177,73 73,73 73,177 v 0 q 0,104 -73,177 -73,73 -177,73 z m 0,-200 v 0 q 22,0 36,-15 14,-15 14,-35 v 0 q 0,-22 -14,-36 -14,-14 -36,-14 v 0 q -20,0 -35,14 -15,14 -15,36 v 0 q 0,20 15,35 15,15 35,15 z m -88,-264 v -20 q 24,-8 56,-44 32,-36 32,-72 v 0 q 0,36 32,72 32,36 56,44 v 0 20 z m -462,314 V 410.57143 10.571429 q 44,100.000001 122,177.000001 78,77 178,123 v 0 q -28,0 -64,19 -36,19 -36,81 v 0 1999.99997 z m -1400,0 v -200 h 200 q 50,0 74,-29 24,-29 26,-71 v 0 q 0,98 56,182 56,84 144,118 v 0 h -300 z m 78,-180 h -302 q -58,-62 -58,-182 v 0 q 0,-56 11,-105 11,-49 33,-113 v 0 q 38,-106 38,-172 v 0 q 0,-62 -56,-105 -56,-43 -124,-43 v 0 h -70 q -52,0 -93,33 -41,33 -57,67 v 0 q 10,-152 -100,-300 v 0 h 380 q 86,0 160,47 74,47 117,127 43,80 43,172 v 0 q 0,92 -44,228 v 0 q -18,58 -26,94 -8,36 -8,70 v 0 q 0,146 156,182 z m -518,180 v -200 h 440 v 200 z m -1560,-400 v -400 -300 q 34,88 118,144 84,56 182,56 v 0 q -42,2 -71,26 -29,24 -29,74 v 0 400 z m 0,400 v -200 h 1300 v 200 z m 0,-500 h 1600 v 200 h -1600 z m 1400,500 v -500 h 200 v 500 z m -50,300 v 0 q -104,0 -177,-74 -73,-74 -73,-178 v 0 -88 h 200 v 92 q 0,20 15,34 15,14 35,14 v 0 q 20,0 35,-14 15,-14 15,-34 v 0 -92 h 200 v 88 q 0,68 -34,126 -34,58 -91,92 -57,34 -125,34 z m -1850,-300 v -200 h 200 v -300 q 0,-50 -29,-74 -29,-24 -71,-26 v 0 q 98,0 182,-56 84,-56 118,-144 v 0 300 500 z m -100,20 v -620 q 0,-50 -29,-74 -29,-24 -71,-26 v 0 q 98,0 182,-56 84,-56 118,-144 v 0 300 600 20 z m -50,280 v 0 q -104,0 -177,-74 -73,-74 -73,-178 v 0 -88 h 200 v 92 q 0,20 15,34 15,14 35,14 v 0 q 20,0 35,-14 15,-14 15,-34 v 0 -92 h 200 v 88 q 0,68 -34,126 -34,58 -91,92 -57,34 -125,34 z m -450,-300 v -200 h 200 v -300 q 0,-50 -29,-74 -29,-24 -71,-26 v 0 q 98,0 182,-56 84,-56 118,-144 v 0 300 500 z m -268,0 h -500 -300 q 88,-34 144,-118 56,-84 56,-182 v 0 q 2,42 26,71 24,29 74,29 v 0 h 500 z m 252,0 -614,-1070 q 76,-42 152,-130 v 0 l 578,1000 z m -714,-642 -10,-18 q -40,-72 -40,-152 0,-80 39,-149 39,-69 111,-109 v 0 l 18,-10 100,174 -22,10 q -36,16 -46,57 -10,41 10,79 v 0 l 10,18 z m 370,642 -374,-650 148,-136 456,786 z m 344,0 v -200 h 116 v 200 z m -1752,-1410 V 410.57143 10.571429 q 44,100.000001 122,177.000001 78,77 178,123 v 0 q -28,0 -64,19 -36,19 -36,81 v 0 589.99997 z m -300,1410 v -790 h 200 v 790 z m 300,0 v -790 h 200 v 790 z m -300,-1410 V 410.57143 q 0,-62 -36,-81 -36,-19 -64,-19 v 0 q 100,-46 178,-123 78,-77 122,-177.000001 v 0 400.000001 589.99997 z m 400,1210 h 300 q 50,0 74,-29 24,-29 26,-71 v 0 q 0,98 56,182 56,84 144,118 v 0 h -300 -300 z m -540,0 h 180 v 200 h -180 z m 352,-1018 v 0 q -52,8 -97,34 -45,26 -77,68 v 0 q -38,-64 -38,-134 v 0 -189.99997 h 200 v 189.99997 q 0,20 12,32 z m 88,-221.99997 h 200 v 189.99997 q 0,104 -73,177 -73,73 -177,73 v 0 q -20,0 -35,14 -15,14 -15,36 v 0 190 h -200 v -190 q 0,-104 73,-177 73,-73 177,-73 v 0 q 22,0 36,-15 14,-15 14,-35 v 0 z m -12,457.99997 v 0 q 52,-8 97,-34 45,-26 77,-68 v 0 q 38,64 38,134 v 0 190 h -200 v -190 q 0,-20 -12,-32 z m -788,982 v -200 h 200 v -300 q 0,-50 -29,-74 -29,-24 -71,-26 v 0 q 98,0 182,-56 84,-56 118,-144 v 0 300 500 z m -100,0 v -400 h 200 v 400 z m -440,0 v -200 h 340 v 200 z m 390,300 v 0 q -104,0 -177,-74 -73,-74 -73,-178 v 0 -88 h 200 v 92 q 0,20 15,34 15,14 35,14 v 0 q 20,0 35,-14 15,-14 15,-34 v 0 -92 h 200 v 88 q 0,68 -34,126 -34,58 -91,92 -57,34 -125,34 z m 50,-700 v -400 h 200 v 400 z m -300,100 v -200 h 500 v 200 z m 300,-480 v -20 q 60,0 112,-27 52,-27 88,-73 v 0 120 z m -100,300 h -200 v -20 q 0,-82 40,-151 40,-69 109,-109 69,-40 151,-40 v 0 h 20 v 200 h -20 q -42,0 -71,29 -29,29 -29,71 v 0 z m -900,480 v 0 q 0,82 -40,151 -40,69 -109,109 -69,40 -151,40 v 0 q -82,0 -151,-40 -69,-40 -109,-109 -40,-69 -40,-151 v 0 q 0,82 59,141 59,59 141,59 v 0 q 82,0 141,-59 59,-59 59,-141 v 0 -300 q 0,-50 -29,-74 -29,-24 -71,-26 v 0 q 98,0 182,-56 84,-56 118,-144 v 0 300 z m -200,0 v -200 h 800 v 200 z m 300,0 v -400 q 0,-50 -29,-74 -29,-24 -71,-26 v 0 q 98,0 182,-56 84,-56 118,-144 v 0 300 400 z m 300,0 v -500 q 0,-50 -29,-74 -29,-24 -71,-26 v 0 q 98,0 182,-56 84,-56 118,-144 v 0 300 500 z m -1400,0 v -200 h 700 v 200 z m 500,0 v -400 h 200 v 400 z m 0,-400 v -400 h 200 v 400 z m -300,100 v -200 h 500 v 200 z m 300,-480 v -20 q 60,0 112,-27 52,-27 88,-73 v 0 120 z m -100,300 h -200 v -20 q 0,-82 40,-151 40,-69 109,-109 69,-40 151,-40 v 0 h 20 v 200 h -20 q -42,0 -71,29 -29,29 -29,71 v 0 z m -500,480 V 410.57143 10.571429 q 44,100.000001 122,177.000001 78,77 178,123 v 0 q -28,0 -64,19 -36,19 -36,81 v 0 1999.99997 z m -500,0 v -200 h 200 v -300 q 0,-50 -29,-74 -29,-24 -71,-26 v 0 q 98,0 182,-56 84,-56 118,-144 v 0 300 500 z m 356,-1043 v 0 q -6,-11 -18,-17 -11,-7 -24,-7 v 0 q -20,0 -35,15 -14,15 -14,35 v 0 q 0,21 14,36 15,14 35,14 v 0 q 16,0 29,-9 13,-10 18,-24 v 0 q 0,33 19,61 18,28 48,39 v 0 h -259 v -67 h 34 q -13,-40 1,-74 15,-34 51,-53 v 0 q 30,-15 43,-32 13,-18 16,-40 v 0 q 10,17 11,37 1,19 -7,36 v 0 q 19,7 27,19 8,11 11,31 z m -256,1043 h -200 V 410.57143 q 0,-62 -36,-81 -36,-19 -64,-19 v 0 q 100,-46 178,-123 78,-77 122,-177.000001 v 0 400.000001 z m -340,-200 h 180 v 200 h -180 z m -160,200 v -800 q 0,-50 -29,-74 -29,-24 -71,-26 v 0 q 98,0 182,-56 84,-56 118,-144 v 0 300 800 z m -280,0 h -120 q 46,-36 73,-88 27,-52 27,-112 v 0 h 20 z m 280,-100 v -400 h 200 v 400 z m -300,100 v -200 h 500 v 200 z m 300,-480 v -20 q 60,0 112,-27 52,-27 88,-73 v 0 120 z m -100,300 h -200 v -20 q 0,-82 40,-151 40,-69 109,-109 69,-40 151,-40 v 0 h 20 v 200 h -20 q -42,0 -71,29 -29,29 -29,71 v 0 z m -700,180 v -200 h 200 v -300 q 0,-50 -29,-74 -29,-24 -71,-26 v 0 q 98,0 182,-56 84,-56 118,-144 v 0 300 500 z m -100,0 V 410.57143 10.571429 q 44,100.000001 122,177.000001 78,77 178,123 v 0 q -28,0 -64,19 -36,19 -36,81 v 0 1999.99997 z m -360,300 v 0 q -68,0 -126,-16 -58,-16 -114,-58 v 0 q 178,2 239,-76 61,-78 61,-170 v 0 h 200 q 0,120 -52,220 -52,100 -208,100 z m -240,-300 v -200 h 500 v 200 z m 300,-80 v -420 h 200 v 420 z m 0,-400 v -20 q 60,0 112,-27 52,-27 88,-73 v 0 120 z m -100,300 h -200 v -20 q 0,-82 40,-151 40,-69 109,-109 69,-40 151,-40 v 0 h 20 v 200 h -20 q -42,0 -71,29 -29,29 -29,71 v 0 z m -1240,-120 v -200 h 200 v -300 q 0,-50 -29,-74 -29,-24 -71,-26 v 0 q 98,0 182,-56 84,-56 118,-144 v 0 300 500 z m 248,600 h -348 q -68,0 -126,-34 -58,-34 -92,-91 -34,-57 -34,-125 v 0 q 0,-104 74,-177 74,-73 178,-73 v 0 h 248 v 200 h -252 q -20,0 -34,15 -14,15 -14,35 v 0 q 0,20 14,35 14,15 34,15 v 0 h 352 q 50,0 74,-29 24,-29 26,-71 v 0 q 0,98 56,182 56,84 144,118 v 0 z m -716,-1150 v 0 q 46,-20 105,-34 59,-14 99,-14 v 0 q 90,0 158,45 68,45 108,131 v 0 q 22,48 84,212 v 0 l 6,14 q 28,76 69,140 41,64 133,115 92,51 244,51 v 0 q 130,0 205,-32 75,-32 95,-78 v 0 q 0,98 56,182 56,84 144,118 v 0 h -1030 v -200 h 14 q -76,-116 -124,-238 v 0 q -4,-10 -10,-26 -6,-16 -12,-34 v 0 q -40,-112 -54,-140 v 0 q -16,-34 -39,-48 -23,-14 -57,-14 v 0 q -22,0 -43,13 -21,13 -35,37 v 0 q -20,-114 -116,-200 z m -384,850 v -200 h 200 q 50,0 74,-29 24,-29 26,-71 v 0 q 0,98 56,182 56,84 144,118 v 0 h -300 z m 78,-180 h -302 q -58,-62 -58,-182 v 0 q 0,-56 11,-105 11,-49 33,-113 v 0 q 38,-106 38,-172 v 0 q 0,-62 -56,-105 -56,-43 -124,-43 v 0 h -70 q -52,0 -93,33 -41,33 -57,67 v 0 q 10,-152 -100,-300 v 0 h 380 q 86,0 160,47 74,47 117,127 43,80 43,172 v 0 q 0,92 -44,228 v 0 q -18,58 -26,94 -8,36 -8,70 v 0 q 0,146 156,182 z m -518,180 v -200 h 440 v 200 z m -100,-200 h 180 v 200 h -180 z m -100,0 h 180 v 200 h -180 z m -100,0 h 180 v 200 h -180 z m -360,200 v -200 h 200 v -300 q 0,-50 -29,-74 -29,-24 -71,-26 v 0 q 98,0 182,-56 84,-56 118,-144 v 0 300 500 z m -300,0 v -200 h 200 v -300 q 0,-50 -29,-74 -29,-24 -71,-26 v 0 q 98,0 182,-56 84,-56 118,-144 v 0 300 500 z m -1300,0 h -100 -300 q 88,-34 144,-118 56,-84 56,-182 v 0 q 2,42 26,71 24,29 74,29 v 0 h 100 z m 1400,-1715.99997 -1358,1357.99997 -142,-142 1414,-1413.99997 86,86 z M 10770,2110.5714 v -200 h 400 v 200 z M 12130,210.57143 h -1160 q -50,0 -74,29 -24,29 -26,71 v 0 q 0,-98 -56,-182 -56,-84.000001 -144,-118.000001 v 0 h 300 1160 z m -60,484 V 10.571429 h 200 V 694.57143 Z M 10654,2210.5714 h 100 v 200 h -100 z m 16,200 v -200 h 1300 v 200 z m 1400,0 v -500 h 200 v 500 z m -1100,-300 v -200 h 1300 v 200 z m 1050,600 v 0 q -104,0 -177,-74 -73,-74 -73,-178 v 0 -88 h 200 v 92 q 0,20 15,34 15,14 35,14 v 0 q 20,0 35,-14 15,-14 15,-34 v 0 -92 h 200 v 88 q 0,68 -34,126 -34,58 -91,92 -57,34 -125,34 z m -1950,-300 v -200 h 200 v -300 q 0,-50 -29,-74 -29,-24 -71,-26 v 0 q 98,0 182,-56 84,-56 118,-144 v 0 300 500 z m -100,-1410 V 410.57143 10.571429 q 44,100.000001 122,177.000001 78,77 178,123 v 0 q -28,0 -64,19 -36,19 -36,81 v 0 589.99997 z m -300,1410 v -790 h 200 v 790 z m 300,0 v -790 h 200 v 790 z m -300,-1410 V 410.57143 q 0,-62 -36,-81 -36,-19 -64,-19 v 0 q 100,-46 178,-123 78,-77 122,-177.000001 v 0 400.000001 589.99997 z m -140,1210 h 180 v 200 h -180 z m 352,-1018 v 0 q -52,8 -97,34 -45,26 -77,68 v 0 q -38,-64 -38,-134 v 0 -189.99997 h 200 v 189.99997 q 0,20 12,32 z m 88,-221.99997 h 200 v 189.99997 q 0,104 -73,177 -73,73 -177,73 v 0 q -20,0 -35,14 -15,14 -15,36 v 0 190 h -200 v -190 q 0,-104 73,-177 73,-73 177,-73 v 0 q 22,0 36,-15 14,-15 14,-35 v 0 z m -12,457.99997 v 0 q 52,-8 97,-34 45,-26 77,-68 v 0 q 38,64 38,134 v 0 190 h -200 v -190 q 0,-20 -12,-32 z m -1188,982 v -500 q 0,-50 -29,-74 -29,-24 -71,-26 v 0 q 194,-4 442,-60 248,-56 458,-140 v 0 300 500 h -200 v -600 q 0,-50 -29,-74 -29,-24 -71,-26 v 0 166 534 h -200 v -532 q 0,-50 -29,-74 -29,-24 -71,-26 v 0 134 498 z m -140,0 v -200 h 540 v 200 z m 690,300 v 0 q -104,0 -177,-74 -73,-74 -73,-178 v 0 -88 h 200 v 92 q 0,20 15,34 15,14 35,14 v 0 q 20,0 35,-14 15,-14 15,-34 v 0 -92 h 200 v 88 q 0,68 -34,126 -34,58 -91,92 -57,34 -125,34 z m -1770,-1600 v 0 q 0,-135.99997 68,-257.99997 68,-122 183,-195 115,-73 249,-73 v 0 q 136,0 251,67 115,67 182,182 67,115 67,250.99997 v 0 q 0,74 -15,152 -15,78 -69,172 v 0 l -290,506 -114,-200 230,-400 q 62,-108 58,-236 -4,-127.99997 -95,-216.99997 -91,-89 -275,-89 v 0 q -120,0 -211,54 -91,54 -146,132 -55,77.99997 -73,151.99997 z m 60,1300 v -200 h 240 v 200 z m 430,-258 -98,170 q -16,28 -16,62 v 0 q 0,52 37,89 37,37 89,37 v 0 q 52,0 89,-37 37,-37 37,-89 v 0 q 0,-34 -16,-62 v 0 l -364,-628 160,-118 362,624 q 56,80 56,184 v 0 q 0,88 -44,163 -44,75 -119,119 -75,44 -163,44 v 0 q -88,0 -163,-44 -75,-44 -118,-119 -43,-75 -43,-163 v 0 q 0,-104 56,-184 v 0 l 144,-248 z m 210,258 v -200 h 420 v 200 z m -452,-716 -10,-18 q -40,-72 -39,-151 1,-79 40,-148 39,-69 109,-111 v 0 l 18,-10 100,174 -22,10 q -36,16 -46,57 -10,41 10,79 v 0 l 10,18 z m 436,158 114,-198 322,556 -166,112 z m -24,-438 -114,198 -198,-346 q 76,-42 152,-130 v 0 z M 8056,154.57143 7998,12.571429 q 20,-6.0000004 49,2 29,8 51,39 22,31 20,91.000001 v 0 q 0,22 -5,53 -5,31 -9,63 v 0 q -24,124 -14,190 v 0 q 8,58 55,107 47,49 101,67 v 0 8 l -298,-20 q -40,-74 -24,-135 16,-61 66,-141 v 0 q 36,-60 52,-99 16,-39 14,-83 z m -46,16 v 0 q -32,0 -56,-24 -24,-24 -24,-56.000001 v 0 q 0,-34 24,-57 24,-23 56,-23 v 0 q 34,0 57,23 23,23 23,57 v 0 q 0,32.000001 -23,56.000001 -23,24 -57,24 z M 7088,2710.5714 v 0 q -36,0 -76,-8 -40,-8 -62,-22 v 0 q 132,-2 167,-83 35,-81 33,-187 v 0 -100 h 200 v 100 q 0,138 -56,219 -56,81 -206,81 z m 362,-400 v -400 h 200 v 400 z m -300,100 v -200 h 500 v 200 z m 300,-480 v -20 q 60,0 112,-27 52,-27 88,-73 v 0 120 z m -100,300 h -200 v -20 q 0,-82 40,-151 40,-69 109,-109 69,-40 151,-40 v 0 h 20 v 200 h -20 q -42,0 -71,29 -29,29 -29,71 v 0 z m -900,-1230 V 410.57143 10.571429 q 44,100.000001 122,177.000001 78,77 178,123 v 0 q -28,0 -64,19 -36,19 -36,81 v 0 589.99997 z m -300,1410 v -790 h 200 v 790 z m 300,0 v -790 h 200 v 790 z m -300,-1410 V 410.57143 q 0,-62 -36,-81 -36,-19 -64,-19 v 0 q 100,-46 178,-123 78,-77 122,-177.000001 v 0 400.000001 589.99997 z m 400,1210 h 300 q 50,0 74,-29 24,-29 26,-71 v 0 q 0,98 56,182 56,84 144,118 v 0 h -300 -300 z m -540,0 h 180 v 200 h -180 z m 352,-1018 v 0 q -52,8 -97,34 -45,26 -77,68 v 0 q -38,-64 -38,-134 v 0 -189.99997 h 200 v 189.99997 q 0,20 12,32 z m 88,-221.99997 h 200 v 189.99997 q 0,104 -73,177 -73,73 -177,73 v 0 q -20,0 -35,14 -15,14 -15,36 v 0 190 h -200 v -190 q 0,-104 73,-177 73,-73 177,-73 v 0 q 22,0 36,-15 14,-15 14,-35 v 0 z m -12,457.99997 v 0 q 52,-8 97,-34 45,-26 77,-68 v 0 q 38,64 38,134 v 0 190 h -200 v -190 q 0,-20 -12,-32 z m -1028,982 v -200 h 192 v 200 z m 390,150 v 0 q -104,0 -177,-73 -73,-73 -73,-177 v 0 q 0,-104 73,-177 73,-73 177,-73 v 0 q 104,0 177,73 73,73 73,177 v 0 q 0,104 -73,177 -73,73 -177,73 z m 0,-200 v 0 q 22,0 36,-15 14,-15 14,-35 v 0 q 0,-22 -14,-36 -14,-14 -36,-14 v 0 q -20,0 -35,14 -15,14 -15,36 v 0 q 0,20 15,35 15,15 35,15 z m -88,-264 v -20 q 24,-8 56,-44 32,-36 32,-72 v 0 q 0,36 32,72 32,36 56,44 v 0 20 z m -1862,314 v -500 q 0,-50 -29,-74 -29,-24 -71,-26 v 0 q 98,0 182,-56 84,-56 118,-144 v 0 300 500 z m -140,-200 h 180 v 200 h -180 z m 1540,200 v -500 h 200 v 500 z m -1400,-500 h 1300 v 200 H 3850 Z m 0,500 v -200 h 1300 v 200 z m 1350,-800 v 0 q 68,0 125,34 57,34 91,92 34,58 34,126 v 0 88 h -200 v -92 q 0,-20 -15,-34 -15,-14 -35,-14 v 0 q -20,0 -35,14 -15,14 -15,34 v 0 92 h -200 v -88 q 0,-104 73,-178 73,-74 177,-74 z m 0,1100 v 0 q -104,0 -177,-74 -73,-74 -73,-178 v 0 -88 h 200 v 92 q 0,20 15,34 15,14 35,14 v 0 q 20,0 35,-14 15,-14 15,-34 v 0 -92 h 200 v 88 q 0,68 -34,126 -34,58 -91,92 -57,34 -125,34 z m -1650,-280 v -520 q 0,-50 -29,-74 -29,-24 -71,-26 v 0 q 98,0 182,-56 84,-56 118,-144 v 0 300 500 20 z m -50,280 v 0 q -104,0 -177,-74 -73,-74 -73,-178 v 0 -88 h 200 v 92 q 0,20 15,34 15,14 35,14 v 0 q 20,0 35,-14 15,-14 15,-34 v 0 -92 h 200 v 88 q 0,68 -34,126 -34,58 -91,92 -57,34 -125,34 z m -50,-300 H 2150 1850 q 88,-34 144,-118 56,-84 56,-182 v 0 q 2,42 26,71 24,29 74,29 v 0 h 1100 v -300 q 0,-50 -29,-74 -29,-24 -71,-26 v 0 q 98,0 182,-56 84,-56 118,-144 v 0 300 z m -1818,300 v 0 q -56,0 -104,-27 -48,-27 -78,-73 v 0 q 32,24 76,24 v 0 q 52,0 88,-36 36,-36 36,-88 v 0 -300 q 0,-50 -29,-74 -29,-24 -71,-26 v 0 q 98,0 182,-56 84,-56 118,-144 v 0 300 284 q 0,88 -64,152 -64,64 -154,64 z m -782,-300 v -200 h 700 v 200 z m 500,-100 v -400 h 200 v 400 z m -300,100 v -200 h 500 v 200 z m 300,-480 v -20 q 60,0 112,-27 52,-27 88,-73 v 0 120 z m -100,300 h -200 v -20 q 0,-82 40,-151 40,-69 109,-109 69,-40 151,-40 v 0 h 20 v 200 h -20 q -42,0 -71,29 -29,29 -29,71 v 0 z m -416,180 v -200 h 116 v 200 z m -714,-642 -10,-18 q -40,-72 -40,-152 0,-80 39,-149 39,-69 111,-109 v 0 l 18,-10 100,174 -22,10 q -36,16 -46,57 -10,41 10,79 v 0 l 10,18 z M 270,982.57143 v -572 q 0,-62 -36,-81 -36,-19 -64,-19 v 0 q 100,-46 178,-123 78,-77 122,-177.000001 v 0 400.000001 572 z m -48,567.99997 376,650 q 56,80 56,184 v 0 q 0,88 -42,163 -42,75 -116,119 -74,44 -162,44 v 0 q -88,0 -163,-44 -75,-44 -118,-119 -43,-75 -43,-163 v 0 q 0,-90 56,-184 v 0 l 140,-244 58,102 -120,210 q -22,38 -28,62 -6,24 -6,54 v 0 q 0,70 50,120 50,50 120,50 v 0 q 70,0 120,-50 50,-50 50,-120 v 0 q 0,-22 -8,-48 -8,-26 -36,-72 v 0 l -32,-56 -98,-170 -60,-102 -82,-144 -14,-24 z m 120,166 216,-374 q 62,-114 44,-202 -18,-88 -106,-125 -88,-36.99997 -226,-5 v 0 -101.99997 q 170,-34 286,25 116,59 143,182.99997 27,124 -53,274 v 0 l -244,428 z m 36,-102 -158,-274 q 76,-42 152,-130 v 0 l 120,206 z m 82,144 114,-200 376,652 -116,200 z"
     id="path977" />
</svg>
