<?xml version="1.0" encoding="UTF-8" standalone="no"?>
<svg
   xmlns:dc="http://purl.org/dc/elements/1.1/"
   xmlns:cc="http://creativecommons.org/ns#"
   xmlns:rdf="http://www.w3.org/1999/02/22-rdf-syntax-ns#"
   xmlns:svg="http://www.w3.org/2000/svg"
   xmlns="http://www.w3.org/2000/svg"
   xmlns:sodipodi="http://sodipodi.sourceforge.net/DTD/sodipodi-0.dtd"
   xmlns:inkscape="http://www.inkscape.org/namespaces/inkscape"
   inkscape:export-ydpi="72"
   inkscape:export-xdpi="72"
   inkscape:export-filename="/Users/khaled/bitmap.png"
   inkscape:version="1.0beta1 (32d4812, 2019-09-19)"
   sodipodi:docname="reem.svg"
   id="svg967"
   height="2720"
   width="27878"
   version="1.1">
  <metadata
     id="metadata973">
    <rdf:RDF>
      <cc:Work
         rdf:about="">
        <dc:format>image/svg+xml</dc:format>
        <dc:type
           rdf:resource="http://purl.org/dc/dcmitype/StillImage" />
        <dc:title></dc:title>
      </cc:Work>
    </rdf:RDF>
  </metadata>
  <defs
     id="defs971" />
  <sodipodi:namedview
     inkscape:current-layer="svg967"
     inkscape:window-maximized="0"
     inkscape:window-y="23"
     inkscape:window-x="0"
     inkscape:cy="2491.7928"
     inkscape:cx="22782.985"
     inkscape:zoom="0.033838872"
     fit-margin-right="10"
     fit-margin-bottom="10"
     fit-margin-left="10"
     fit-margin-top="10"
     showgrid="false"
     id="namedview969"
     inkscape:window-height="771"
     inkscape:window-width="2040"
     inkscape:pageshadow="2"
     inkscape:pageopacity="0"
     guidetolerance="10"
     gridtolerance="10"
     objecttolerance="10"
     borderopacity="1"
     inkscape:document-rotation="0"
     bordercolor="#666666"
     pagecolor="#ffffff" />
  <path
     inkscape:connector-curvature="0"
     id="path847"
     d="m 3760,1410 v 0 q -42,0 -71,-29 -29,-29 -29,-71 v 0 q 0,-42 29,-71 29,-29 71,-29 v 0 q 42,0 71,29 29,29 29,71 v 0 q 0,42 -29,71 -29,29 -71,29 z m 300,0 v 0 q -42,0 -71,-29 -29,-29 -29,-71 v 0 q 0,-42 29,-71 29,-29 71,-29 v 0 q 42,0 71,29 29,29 29,71 v 0 q 0,42 -29,71 -29,29 -71,29 z m -150,-266 v 0 q -42,0 -71,-29 -29,-29 -29,-71 v 0 q 0,-42 29,-71 29,-29 71,-29 v 0 q 42,0 71,29 29,29 29,71 v 0 q 0,42 -29,71 -29,29 -71,29 z"
     fill="#d22e1f" />
  <path
     inkscape:connector-curvature="0"
     id="path859"
     d="m 6524,1410 v 0 q -42,0 -71,-29 -29,-29 -29,-71 v 0 q 0,-42 29,-71 29,-29 71,-29 v 0 q 42,0 71,29 29,29 29,71 v 0 q 0,42 -29,71 -29,29 -71,29 z"
     fill="#d22e1f" />
  <path
     inkscape:connector-curvature="0"
     id="path875"
     d="m 12392,1410 v 0 q -42,0 -71,-29 -29,-29 -29,-71 v 0 q 0,-42 29,-71 29,-29 71,-29 v 0 q 42,0 71,29 29,29 29,71 v 0 q 0,42 -29,71 -29,29 -71,29 z"
     fill="#d22e1f" />
  <path
     inkscape:connector-curvature="0"
     id="path911"
     d="m 18892,2486 v 0 q -42,0 -71,-29 -29,-29 -29,-71 v 0 q 0,-42 29,-71 29,-29 71,-29 v 0 q 42,0 71,29 29,29 29,71 v 0 q 0,42 -29,71 -29,29 -71,29 z"
     fill="#d22e1f" />
  <path
     inkscape:connector-curvature="0"
     id="path917"
     d="m 19650,2710 v 0 q -42,0 -71,-29 -29,-29 -29,-71 v 0 q 0,-42 29,-71 29,-29 71,-29 v 0 q 42,0 71,29 29,29 29,71 v 0 q 0,42 -29,71 -29,29 -71,29 z"
     fill="#d22e1f" />
  <path
     inkscape:connector-curvature="0"
     id="path925"
     d="m 20850,2486 v 0 q -42,0 -71,-29 -29,-29 -29,-71 v 0 q 0,-42 29,-71 29,-29 71,-29 v 0 q 42,0 71,29 29,29 29,71 v 0 q 0,42 -29,71 -29,29 -71,29 z"
     fill="#d22e1f" />
  <path
     style="stroke-width:0.6"
     inkscape:connector-curvature="0"
     id="path929"
     d="m 21388,2710 v 0 q -25.2,0 -42.6,-17.4 -17.4,-17.4 -17.4,-42.6 v 0 q 0,-25.2 17.4,-42.6 17.4,-17.4 42.6,-17.4 v 0 q 25.2,0 42.6,17.4 17.4,17.4 17.4,42.6 v 0 q 0,25.2 -17.4,42.6 -17.4,17.4 -42.6,17.4 z m 180,0 v 0 q -25.2,0 -42.6,-17.4 -17.4,-17.4 -17.4,-42.6 v 0 q 0,-25.2 17.4,-42.6 17.4,-17.4 42.6,-17.4 v 0 q 25.2,0 42.6,17.4 17.4,17.4 17.4,42.6 v 0 q 0,25.2 -17.4,42.6 -17.4,17.4 -42.6,17.4 z"
     fill="#d22e1f" />
  <path
     style="stroke-width:0.6"
     inkscape:connector-curvature="0"
     id="path933"
     d="m 21778,2710 v 0 q -25.2,0 -42.6,-17.4 -17.4,-17.4 -17.4,-42.6 v 0 q 0,-25.2 17.4,-42.6 17.4,-17.4 42.6,-17.4 v 0 q 25.2,0 42.6,17.4 17.4,17.4 17.4,42.6 v 0 q 0,25.2 -17.4,42.6 -17.4,17.4 -42.6,17.4 z"
     fill="#d22e1f" />
  <path
     inkscape:connector-curvature="0"
     id="path943"
     d="m 23328,1410 v 0 q -42,0 -71,-29 -29,-29 -29,-71 v 0 q 0,-42 29,-71 29,-29 71,-29 v 0 q 42,0 71,29 29,29 29,71 v 0 q 0,42 -29,71 -29,29 -71,29 z m 300,0 v 0 q -42,0 -71,-29 -29,-29 -29,-71 v 0 q 0,-42 29,-71 29,-29 71,-29 v 0 q 42,0 71,29 29,29 29,71 v 0 q 0,42 -29,71 -29,29 -71,29 z"
     fill="#d22e1f" />
  <path
     inkscape:connector-curvature="0"
     d="m 25528,2410 h -136 v -200 h 140 z m 526,-430 v 0 q -20,-32 -54,-51 -34,-19 -72,-19 v 0 q -62,0 -106,44 -44,44 -44,106 v 0 q 0,62 44,106 44,44 106,44 v 0 q 48,0 86,-29 38,-29 54,-71 v 0 q 0,98 56,182 56,84 144,118 v 0 h -776 v -200 h 100 q -38,-120 5,-223 43,-103 153,-159 v 0 q 90,-46 129,-98 39,-52 49,-120 v 0 q 28,52 32,111 4,59 -20,109 v 0 q 56,22 80,56 24,34 34,94 z m -562,430 h -200 V 410 q 0,-62 -36,-81 -36,-19 -64,-19 v 0 q 100,-46 178,-123 78,-77 122,-177 v 0 400 z m -340,-200 h 180 v 200 h -180 z m -76,200 -498,-870 q 76,-42 152,-130 v 0 l 462,800 z m -598,-442 -10,-18 q -40,-72 -40,-152 0,-80 39,-149 39,-69 111,-109 v 0 l 18,-10 100,174 -22,10 q -36,16 -46,57 -10,41 10,79 v 0 l 10,18 z m 350,542 h 1900 l -116,200 h -2084 q 40,-184 204,-300 v 0 l -254,-442 160,-118 324,560 z m 248,-100 v -200 h 116 v 200 z M 24128,1000 V 410 10 q 44,100 122,177 78,77 178,123 v 0 q -28,0 -64,19 -36,19 -36,81 v 0 590 z m -300,1410 v -790 h 200 v 790 z m 300,0 v -790 h 200 v 790 z M 23828,1000 V 410 q 0,-62 -36,-81 -36,-19 -64,-19 v 0 q 100,-46 178,-123 78,-77 122,-177 v 0 400 590 z m 400,1210 h 100 q 50,0 74,-29 24,-29 26,-71 v 0 q 0,98 56,182 56,84 144,118 v 0 h -300 -100 z m -540,0 h 180 v 200 h -180 z m 352,-1018 v 0 q -52,8 -97,34 -45,26 -77,68 v 0 q -38,-64 -38,-134 v 0 -190 h 200 v 190 q 0,20 12,32 z m 88,-222 h 200 v 190 q 0,104 -73,177 -73,73 -177,73 v 0 q -20,0 -35,14 -15,14 -15,36 v 0 190 h -200 v -190 q 0,-104 73,-177 73,-73 177,-73 v 0 q 22,0 36,-15 14,-15 14,-35 v 0 z m -12,458 v 0 q 52,-8 97,-34 45,-26 77,-68 v 0 q 38,64 38,134 v 0 190 h -200 v -190 q 0,-20 -12,-32 z m -1088,982 v -200 h 700 v 200 z m 500,0 v -400 h 200 v 400 z m 0,-400 v -400 h 200 v 400 z m -300,100 v -200 h 500 v 200 z m 300,-480 v -20 q 60,0 112,-27 52,-27 88,-73 v 0 120 z m -100,300 h -200 v -20 q 0,-82 40,-151 40,-69 109,-109 69,-40 151,-40 v 0 h 20 v 200 h -20 q -42,0 -71,29 -29,29 -29,71 v 0 z m -500,480 V 410 10 q 44,100 122,177 78,77 178,123 v 0 q -28,0 -64,19 -36,19 -36,81 v 0 2000 z m -700,300 v -200 h 400 q 50,0 74,-29 24,-29 26,-71 v 0 q 0,98 56,182 56,84 144,118 v 0 h -300 z m 486,-730 v 0 q -20,-32 -54,-51 -34,-19 -72,-19 v 0 q -62,0 -106,44 -44,44 -44,106 v 0 q 0,62 44,106 44,44 106,44 v 0 q 48,0 86,-29 38,-29 54,-71 v 0 q 0,98 56,182 56,84 144,118 v 0 h -700 v -200 h 24 q -38,-120 5,-223 43,-103 153,-159 v 0 q 90,-46 129,-98 39,-52 49,-120 v 0 q 28,52 32,111 4,59 -20,109 v 0 q 56,22 80,56 24,34 34,94 z m -786,480 v 0 q 0,-104 74,-177 74,-73 178,-73 v 0 h 88 v 200 h -92 q -20,0 -34,15 -14,15 -14,35 v 0 q 0,20 14,35 14,15 34,15 v 0 h 92 v 200 h -88 q -68,0 -126,-34 -58,-34 -92,-91 -34,-57 -34,-125 z m -500,-50 v -200 h 200 v -300 q 0,-50 -29,-74 -29,-24 -71,-26 v 0 q 98,0 182,-56 84,-56 118,-144 v 0 300 500 z m -300,0 v -200 h 200 v -300 q 0,-50 -29,-74 -29,-24 -71,-26 v 0 q 98,0 182,-56 84,-56 118,-144 v 0 300 500 z m -198,300 v 0 q -90,0 -166,-44 -76,-44 -120,-120 -44,-76 -44,-166 v 0 q 0,-66 29,-126 29,-60 93,-104 v 0 q 18,-12 52,-46 v 0 q 44,-44 43,-102 -1,-58 -63,-94 v 0 q 64,10 89,46 25,36 25,74 0,38 -10,60 v 0 q 24,0 44,15 20,15 26,39 v 0 q -46,-6 -91,4 -45,10 -75,28 v 0 q -70,42 -98,100 -28,58 -26,118 v 0 q 0,88 62,150 62,62 150,62 v 0 q 88,0 150,-62 62,-62 62,-150 v 0 q 0,-58 -27,-106 -27,-48 -75,-76 v 0 q 52,-60 76,-133 24,-73 24,-167 v 0 q 104,146 153,257 49,111 45,243 v 0 q -2,92 -48,160 -46,68 -120,104 -74,36 -160,36 z M 20300,1000 V 410 10 q 44,100 122,177 78,77 178,123 v 0 q -28,0 -64,19 -36,19 -36,81 v 0 590 z m -300,1410 v -790 h 200 v 790 z m 300,0 v -790 h 200 v 790 z M 20000,1000 V 410 q 0,-62 -36,-81 -36,-19 -64,-19 v 0 q 100,-46 178,-123 78,-77 122,-177 v 0 400 590 z m -140,1210 h 180 v 200 h -180 z m 352,-1018 v 0 q -52,8 -97,34 -45,26 -77,68 v 0 q -38,-64 -38,-134 v 0 -190 h 200 v 190 q 0,20 12,32 z m 88,-222 h 200 v 190 q 0,104 -73,177 -73,73 -177,73 v 0 q -20,0 -35,14 -15,14 -15,36 v 0 190 h -200 v -190 q 0,-104 73,-177 73,-73 177,-73 v 0 q 22,0 36,-15 14,-15 14,-35 v 0 z m -12,458 v 0 q 52,-8 97,-34 45,-26 77,-68 v 0 q 38,64 38,134 v 0 190 h -200 v -190 q 0,-20 -12,-32 z m -788,982 v -200 h 200 v -300 q 0,-50 -29,-74 -29,-24 -71,-26 v 0 q 98,0 182,-56 84,-56 118,-144 v 0 300 500 z m -100,0 V 410 10 q 44,100 122,177 78,77 178,123 v 0 q -28,0 -64,19 -36,19 -36,81 v 0 2000 z m -428,300 v 0 q -90,0 -166,-44 -76,-44 -120,-120 -44,-76 -44,-166 v 0 q 0,-66 29,-126 29,-60 93,-104 v 0 q 18,-12 52,-46 v 0 q 44,-44 43,-102 -1,-58 -63,-94 v 0 q 64,10 89,46 25,36 25,74 0,38 -10,60 v 0 q 24,0 44,15 20,15 26,39 v 0 q -46,-6 -91,4 -45,10 -75,28 v 0 q -70,42 -98,100 -28,58 -26,118 v 0 q 0,88 62,150 62,62 150,62 v 0 q 88,0 150,-62 62,-62 62,-150 v 0 q 0,-58 -27,-106 -27,-48 -75,-76 v 0 q 52,-60 76,-133 24,-73 24,-167 v 0 q 104,146 153,257 49,111 45,243 v 0 q -2,92 -48,160 -46,68 -120,104 -74,36 -160,36 z m -690,0 v 0 q -68,0 -126,-16 -58,-16 -114,-58 v 0 q 178,2 239,-76 61,-78 61,-170 v 0 h 200 q 0,120 -52,220 -52,100 -208,100 z m -240,-300 v -200 h 500 v 200 z m 300,-80 v -420 h 200 v 420 z m 0,-400 v -20 q 60,0 112,-27 52,-27 88,-73 v 0 120 z m -100,300 h -200 v -20 q 0,-82 40,-151 40,-69 109,-109 69,-40 151,-40 v 0 h 20 v 200 h -20 q -42,0 -71,29 -29,29 -29,71 v 0 z M 17742,1000 V 410 10 q 44,100 122,177 78,77 178,123 v 0 q -28,0 -64,19 -36,19 -36,81 v 0 590 z m -300,1410 v -790 h 200 v 790 z m 300,0 v -790 h 200 v 790 z M 17442,1000 V 410 q 0,-62 -36,-81 -36,-19 -64,-19 v 0 q 100,-46 178,-123 78,-77 122,-177 v 0 400 590 z m -140,1210 h 180 v 200 h -180 z m 352,-1018 v 0 q -52,8 -97,34 -45,26 -77,68 v 0 q -38,-64 -38,-134 v 0 -190 h 200 v 190 q 0,20 12,32 z m 88,-222 h 200 v 190 q 0,104 -73,177 -73,73 -177,73 v 0 q -20,0 -35,14 -15,14 -15,36 v 0 190 h -200 v -190 q 0,-104 73,-177 73,-73 177,-73 v 0 q 22,0 36,-15 14,-15 14,-35 v 0 z m -12,458 v 0 q 52,-8 97,-34 45,-26 77,-68 v 0 q 38,64 38,134 v 0 190 h -200 v -190 q 0,-20 -12,-32 z m -1528,982 v -200 h 540 v 200 z m 540,0 -192,-58 q 62,-208 208,-340 146,-132 358,-178 v 0 l 226,176 q -196,0 -364,86 -168,86 -236,314 z m 200,0 v -200 h 400 v 200 z m -280,-500 -320,100 q 26,-106 100,-192 74,-86 179,-135 105,-49 221,-49 v 0 q 116,0 221,49 105,49 179,135 74,86 100,192 v 0 l -320,-100 q -36,-30 -65,-47 -29,-17 -65,-25 v 0 q -4,-26 -13,-38 -9,-12 -37,-32 v 0 q -28,20 -37,32 -9,12 -13,38 v 0 q -34,6 -64,24 -30,18 -66,48 z m 342,-250 h -324 q 0,-42 20,-68 20,-26 62,-60 v 0 q 42,-32 61,-57 19,-25 19,-65 v 0 q 0,40 19,65 19,25 61,57 v 0 q 42,34 62,60 20,26 20,68 z m -662,350 206,-182 q 156,30 276,106 v 0 q -88,60 -154,142 v 0 q -140,-66 -328,-66 z m 512,220 v 0 q 66,-80 154,-128 v 0 q 84,110 126,250 v 0 l -192,58 q -32,-106 -88,-180 z m -612,180 h -200 V 410 q 0,-62 -36,-81 -36,-19 -64,-19 v 0 q 100,-46 178,-123 78,-77 122,-177 v 0 400 z m -340,-200 h 180 v 200 h -180 z m -522,500 v 0 q -36,0 -76,-8 -40,-8 -62,-22 v 0 q 132,-2 167,-83 35,-81 33,-187 v 0 -100 h 200 v 100 q 0,138 -56,219 -56,81 -206,81 z m 362,-400 v -400 h 200 v 400 z m -300,100 v -200 h 500 v 200 z m 300,-480 v -20 q 60,0 112,-27 52,-27 88,-73 v 0 120 z m -100,300 h -200 v -20 q 0,-82 40,-151 40,-69 109,-109 69,-40 151,-40 v 0 h 20 v 200 h -20 q -42,0 -71,29 -29,29 -29,71 v 0 z m -600,180 V 410 10 q 44,100 122,177 78,77 178,123 v 0 q -28,0 -64,19 -36,19 -36,81 v 0 2000 z m -500,0 v -200 h 200 q 50,0 74,-29 24,-29 26,-71 v 0 q 0,98 56,182 56,84 144,118 v 0 h -300 z m 78,-180 h -302 q -58,-62 -58,-182 v 0 q 0,-56 11,-105 11,-49 33,-113 v 0 q 38,-106 38,-172 v 0 q 0,-62 -56,-105 -56,-43 -124,-43 v 0 h -70 q -52,0 -93,33 -41,33 -57,67 v 0 q 10,-152 -100,-300 v 0 h 380 q 86,0 160,47 74,47 117,127 43,80 43,172 v 0 q 0,92 -44,228 v 0 q -18,58 -26,94 -8,36 -8,70 v 0 q 0,146 156,182 z m -518,180 v -200 h 440 v 200 z m -100,-200 h 180 v 200 h -180 z m -100,0 h 180 v 200 h -180 z m -100,0 h 180 v 200 h -180 z m 40,500 h -600 -300 q 88,-34 144,-118 56,-84 56,-182 v 0 q 2,42 26,71 24,29 74,29 v 0 h 600 z m -200,-100 v -300 h 200 v 300 z m 0,-200 V 410 q 0,-62 -36,-81 -36,-19 -64,-19 v 0 q 100,-46 178,-123 78,-77 122,-177 v 0 400 2000 z m -900,0 v -500 q 0,-50 -29,-74 -29,-24 -71,-26 v 0 q 194,-4 442,-60 248,-56 458,-140 v 0 300 500 h -200 v -600 q 0,-50 -29,-74 -29,-24 -71,-26 v 0 166 534 h -200 v -532 q 0,-50 -29,-74 -29,-24 -71,-26 v 0 134 498 z m -140,0 v -200 h 940 v 200 z m -660,0 v -200 h 700 v 200 z m 500,0 v -400 h 200 v 400 z m 0,-400 v -400 h 200 v 400 z m -300,100 v -200 h 500 v 200 z m 300,-480 v -20 q 60,0 112,-27 52,-27 88,-73 v 0 120 z m -100,300 h -200 v -20 q 0,-82 40,-151 40,-69 109,-109 69,-40 151,-40 v 0 h 20 v 200 h -20 q -42,0 -71,29 -29,29 -29,71 v 0 z m -1700,480 h -100 -300 q 88,-34 144,-118 56,-84 56,-182 v 0 q 2,42 26,71 24,29 74,29 v 0 h 100 z m 1400,-1716 -1358,1358 -142,-142 1414,-1414 86,86 z m -1500,1416 v -200 h 400 v 200 z M 11902,210 h -1160 q -50,0 -74,29 -24,29 -26,71 v 0 q 0,-98 -56,-182 -56,-84 -144,-118 v 0 h 300 1160 z m -60,484 V 10 h 200 v 684 z m -1416,1516 h 100 v 200 h -100 z m 16,200 v -200 h 1300 v 200 z m 1400,0 v -500 h 200 v 500 z m -1100,-300 v -200 h 1300 v 200 z m 1050,600 v 0 q -104,0 -177,-74 -73,-74 -73,-178 v 0 -88 h 200 v 92 q 0,20 15,34 15,14 35,14 v 0 q 20,0 35,-14 15,-14 15,-34 v 0 -92 h 200 v 88 q 0,68 -34,126 -34,58 -91,92 -57,34 -125,34 z M 8842,2410 v 0 q 0,50 29,74 29,24 71,26 v 0 q -98,0 -182,56 -84,56 -118,144 v 0 -300 -100 h 200 z m 1200,0 v -500 h 200 v 500 z M 8642,1910 h 1300 v 200 H 8642 Z m 0,500 v -200 h 1300 v 200 z m 1350,-800 v 0 q 68,0 125,34 57,34 91,92 34,58 34,126 v 0 88 h -200 v -92 q 0,-20 -15,-34 -15,-14 -35,-14 v 0 q -20,0 -35,14 -15,14 -15,34 v 0 92 h -200 v -88 q 0,-104 73,-178 73,-74 177,-74 z m 0,1100 v 0 q -104,0 -177,-74 -73,-74 -73,-178 v 0 -88 h 200 v 92 q 0,20 15,34 15,14 35,14 v 0 q 20,0 35,-14 15,-14 15,-34 v 0 -92 h 200 v 88 q 0,68 -34,126 -34,58 -91,92 -57,34 -125,34 z M 8642,2010 V 410 10 q 44,100 122,177 78,77 178,123 v 0 q -28,0 -64,19 -36,19 -36,81 v 0 1600 z m -800,400 v -200 h 700 v 200 z m 500,-100 v -400 h 200 v 400 z m -300,100 v -200 h 500 v 200 z m 300,-480 v -20 q 60,0 112,-27 52,-27 88,-73 v 0 120 z m -100,300 h -200 v -20 q 0,-82 40,-151 40,-69 109,-109 69,-40 151,-40 v 0 h 20 v 200 h -20 q -42,0 -71,29 -29,29 -29,71 v 0 z m -668,180 h -500 -300 q 88,-34 144,-118 56,-84 56,-182 v 0 q 2,42 26,71 24,29 74,29 v 0 h 500 z m 252,0 -502,-870 q 76,-42 152,-130 v 0 l 466,800 z m -602,-442 -10,-18 q -40,-72 -40,-152 0,-80 39,-149 39,-69 111,-109 v 0 l 18,-10 100,174 -22,10 q -36,16 -46,57 -10,41 10,79 v 0 l 10,18 z m 254,442 -258,-450 148,-136 340,586 z m 348,0 v -200 h 116 v 200 z m -1752,0 v -200 h 700 v 200 z m 500,0 v -400 h 200 v 400 z m 0,-400 v -400 h 200 v 400 z m -300,100 v -200 h 500 v 200 z m 300,-480 v -20 q 60,0 112,-27 52,-27 88,-73 v 0 120 z m -100,300 h -200 v -20 q 0,-82 40,-151 40,-69 109,-109 69,-40 151,-40 v 0 h 20 v 200 h -20 q -42,0 -71,29 -29,29 -29,71 v 0 z m -416,480 -498,-870 q 76,-42 152,-130 v 0 l 462,800 z m -598,-442 -10,-18 q -40,-72 -40,-152 0,-80 39,-149 39,-69 111,-109 v 0 l 18,-10 100,174 -22,10 q -36,16 -46,57 -10,41 10,79 v 0 l 10,18 z m 350,542 h 1900 l -116,200 H 5510 q 40,-184 204,-300 v 0 l -254,-442 160,-118 324,560 z m 248,-100 v -200 h 116 v 200 z m -848,-200 h 100 q 50,0 74,-29 24,-29 26,-71 v 0 q 0,98 56,182 56,84 144,118 v 0 h -300 -100 z m -100,200 V 410 10 q 44,100 122,177 78,77 178,123 v 0 q -28,0 -64,19 -36,19 -36,81 v 0 2000 z M 4460,1806 V 410 q 0,-62 -36,-81 -36,-19 -64,-19 v 0 q 100,-46 178,-123 78,-77 122,-177 v 0 400 1396 z m 500,0 H 4760 V 410 10 q 44,100 122,177 78,77 178,123 v 0 q -28,0 -64,19 -36,19 -36,81 v 0 z m -530,604 h -120 q 46,-36 73,-88 27,-52 27,-112 v 0 h 20 z m 680,0 h -120 v -200 h 20 q 0,60 27,112 27,52 73,88 z m -700,0 v -200 h 600 v 200 z m 400,-100 v 100 q 0,82 -26,173 -26,91 -74,127 v 0 -400 z m -200,0 h 100 v 400 q -48,-36 -74,-127 -26,-91 -26,-173 v 0 z m 100,-200 v 0 q -42,0 -71,29 -29,29 -29,71 v 0 q 0,42 29,71 29,29 71,29 v 0 q 42,0 71,-29 29,-29 29,-71 v 0 q 0,-26 -13,-49 -13,-23 -35,-37 v 0 q 108,-20 172,-114 v 0 q 36,40 56,92 20,52 20,108 v 0 100 h -600 v -100 q 0,-82 40,-151 40,-69 109,-109 69,-40 151,-40 v 0 q 20,0 35,-14 15,-14 15,-34 v 0 -92 h 200 v 88 q 0,68 -34,126 -34,58 -91,92 -57,34 -125,34 z m -38,-218 v 0 q -104,12 -182,86 v 0 q -30,-54 -30,-120 v 0 -88 h 200 v 92 q 0,18 12,30 z m -1162,518 v -500 q 0,-50 -29,-74 -29,-24 -71,-26 v 0 q 194,-4 442,-60 248,-56 458,-140 v 0 300 500 h -200 v -600 q 0,-50 -29,-74 -29,-24 -71,-26 v 0 166 534 h -200 v -532 q 0,-50 -29,-74 -29,-24 -71,-26 v 0 134 498 z m -140,0 v -200 h 240 v 200 z m 500,0 v -200 h 440 v 200 z m -110,300 v 0 q -104,0 -177,-74 -73,-74 -73,-178 v 0 -88 h 200 v 92 q 0,20 15,34 15,14 35,14 v 0 q 20,0 35,-14 15,-14 15,-34 v 0 -92 h 200 v 88 q 0,68 -34,126 -34,58 -91,92 -57,34 -125,34 z m -930,-300 v -200 h -20 v 200 z m 80,0 v -700 q 0,-50 -29,-74 -29,-24 -71,-26 v 0 q 98,0 182,-56 84,-56 118,-144 v 0 300 700 z m 600,0 h -120 v -200 h 20 q 0,60 27,112 27,52 73,88 z m -1040,0 v -200 h 940 v 200 z m 440,-200 h 200 v -20 h -200 z m 200,200 h -200 v 20 h 200 z m 20,-360 v -222 q 124,40 202,145 78,105 78,237 v 0 q 0,44 -8,78 v 0 l -210,4 q 18,-40 18,-82 v 0 q 0,-48 -22,-90 -22,-42 -58,-70 z m -520,360 v -200 q 0,-132 78,-237 78,-105 202,-145 v 0 222 q -36,28 -58,70 -22,42 -22,90 v 0 200 z m 250,300 v 0 q -104,0 -177,-74 -73,-74 -73,-178 v 0 -88 h 200 v 92 q 0,20 15,34 15,14 35,14 v 0 q 20,0 35,-14 15,-14 15,-34 v 0 -92 h 200 v 88 q 0,68 -34,126 -34,58 -91,92 -57,34 -125,34 z m -568,0 v 0 q -56,0 -104,-27 -48,-27 -78,-73 v 0 q 32,24 76,24 v 0 q 52,0 88,-36 36,-36 36,-88 v 0 -300 q 0,-50 -29,-74 -29,-24 -71,-26 v 0 q 98,0 182,-56 84,-56 118,-144 v 0 300 284 q 0,88 -64,152 -64,64 -154,64 z M 1810,1000 V 410 10 q 44,100 122,177 78,77 178,123 v 0 q -28,0 -64,19 -36,19 -36,81 v 0 590 z m 0,1410 v -790 h 200 v 790 z M 1510,1000 V 410 q 0,-62 -36,-81 -36,-19 -64,-19 v 0 q 100,-46 178,-123 78,-77 122,-177 v 0 400 590 z m 400,1210 h 100 q 50,0 74,-29 24,-29 26,-71 v 0 q 0,98 56,182 56,84 144,118 v 0 h -300 -100 z m -600,-300 h 240 v 200 h -240 z m 200,200 v -490 h 200 v 490 z m 212,-918 v 0 q -52,8 -97,34 -45,26 -77,68 v 0 q -38,-64 -38,-134 v 0 -190 h 200 v 190 q 0,20 12,32 z m 88,-222 h 200 v 190 q 0,104 -73,177 -73,73 -177,73 v 0 q -20,0 -35,14 -15,14 -15,36 v 0 190 h -200 v -190 q 0,-104 73,-177 73,-73 177,-73 v 0 q 22,0 36,-15 14,-15 14,-35 v 0 z m -12,458 v 0 q 52,-8 97,-34 45,-26 77,-68 v 0 q 38,64 38,134 v 0 190 h -200 v -190 q 0,-20 -12,-32 z m -528,982 v -200 h 200 q 50,0 74,-29 24,-29 26,-71 v 0 q 0,98 56,182 56,84 144,118 v 0 h -300 z m 200,-200 -284,20 q -58,-62 -58,-182 v 0 q 0,-56 11,-105 11,-49 33,-113 v 0 q 38,-106 38,-172 v 0 q 0,-62 -56,-105 -56,-43 -124,-43 v 0 h -70 q -52,0 -93,33 -41,33 -57,67 v 0 q 10,-152 -100,-300 v 0 h 380 q 86,0 160,47 74,47 117,127 43,80 43,172 v 0 q 0,92 -44,228 v 0 q -18,58 -26,94 -8,36 -8,70 v 0 q 0,76 41,119 41,43 97,43 z m -500,200 v -200 h 440 v 200 z m -178,300 v 0 q -56,0 -104,-27 -48,-27 -78,-73 v 0 q 32,24 76,24 v 0 q 52,0 88,-36 36,-36 36,-88 v 0 -300 q 0,-50 -29,-74 -29,-24 -71,-26 v 0 q 98,0 182,-56 84,-56 118,-144 v 0 300 284 q 0,88 -64,152 -64,64 -154,64 z m -644,0 v 0 q -36,0 -76,-8 -40,-8 -62,-22 v 0 q 132,-2 167,-83 35,-81 33,-187 v 0 -100 h 200 v 100 q 0,138 -56,219 -56,81 -206,81 z m 362,-400 v -400 h 200 v 400 z m -300,100 v -200 h 500 v 200 z m 300,-480 v -20 q 60,0 112,-27 52,-27 88,-73 v 0 120 z M 410,2230 H 210 v -20 q 0,-82 40,-151 40,-69 109,-109 69,-40 151,-40 v 0 h 20 v 200 h -20 q -42,0 -71,29 -29,29 -29,71 v 0 z"
     id="path957" />
  <path
     inkscape:connector-curvature="0"
     id="path961"
     d="m 26968,2710 v 0 q -42,0 -71,-29 -29,-29 -29,-71 v 0 q 0,-42 29,-71 29,-29 71,-29 v 0 q 42,0 71,29 29,29 29,71 v 0 q 0,42 -29,71 -29,29 -71,29 z m 300,0 v 0 q -42,0 -71,-29 -29,-29 -29,-71 v 0 q 0,-42 29,-71 29,-29 71,-29 v 0 q 42,0 71,29 29,29 29,71 v 0 q 0,42 -29,71 -29,29 -71,29 z"
     fill="#d22e1f" />
  <path
     inkscape:connector-curvature="0"
     style="fill:#0067ff;fill-opacity:1"
     d="m 27650,2710 v 0 q -56,0 -104,-27 -48,-27 -78,-73 v 0 q 32,24 76,24 v 0 q 52,0 88,-36 36,-36 36,-88 v 0 -300 q 0,-50 -29,-74 -29,-24 -71,-26 v 0 q 98,0 182,-56 84,-56 118,-144 v 0 300 284 q 0,88 -64,152 -64,64 -154,64 z m -482,-300 v -200 h 200 v -300 q 0,-50 -29,-74 -29,-24 -71,-26 v 0 q 98,0 182,-56 84,-56 118,-144 v 0 300 500 z m -300,0 h -300 -300 q 88,-34 144,-118 56,-84 56,-182 v 0 q 2,42 26,71 24,29 74,29 v 0 h 300 z m -100,-50 v -200 h 20 v 200 z m -100,50 v -200 h 600 v 200 z m 580,-50 v -200 h 20 v 200 z m -230,50 v 0 q -104,0 -177,-73 -73,-73 -73,-177 v 0 q 0,-104 73,-177 73,-73 177,-73 v 0 q 104,0 177,73 73,73 73,177 v 0 q 0,104 -73,177 -73,73 -177,73 z m 0,-200 v 0 q 22,0 36,-15 14,-15 14,-35 v 0 q 0,-22 -14,-36 -14,-14 -36,-14 v 0 q -20,0 -35,14 -15,14 -15,36 v 0 q 0,20 15,35 15,15 35,15 z m -88,-264 v -20 q 24,-8 56,-44 32,-36 32,-72 v 0 q 0,36 32,72 32,36 56,44 v 0 20 z"
     id="path965" />
</svg>
